<?xml version="1.0" encoding="UTF-8"?>
<svg xmlns="http://www.w3.org/2000/svg" version="1.1" viewBox="0 0 1080 1080">
  <defs>
    <style>
      .cls-1 {
        fill: #f6ae82;
      }

      .cls-2 {
        fill: #faf7f7;
      }
    </style>
  </defs>
  <!-- Generator: Adobe Illustrator 28.7.1, SVG Export Plug-In . SVG Version: 1.2.0 Build 142)  -->
  <g>
    <g id="Layer_1">
      <g>
        <path class="cls-2" d="M867.2,1008.6c-9.3,1.1-37.7.8-43.4-.4-1.1-2.5-.7-5.3-.7-8,0-22.4,0-44.8,0-67.2s0-41.7,0-62.6c0-2.7-.5-5.6.8-8.1,6-.9,35.3-1,42.8-.2,1.9,2.4,1.1,5.3,1.1,8.1,0,20.4,0,40.7,0,61.1,0,22.9,0,45.8,0,68.7,0,2.7.4,5.6-.7,8.6Z"/>
        <path class="cls-2" d="M355.1,861.8h43.6c2.4,1.9,2.5,4.9,3.3,7.5,10.9,35.7,21.8,71.5,32.7,107.2,2.8,9.2,5.6,18.5,8.4,27.7.4,1.2.6,2.4.9,3.5-5.3,1.7-27.2,2.1-43.3,1-2.4-1.6-2.5-4.3-3.2-6.7-9.9-32.3-19.7-64.7-29.6-97-3.8-12.4-7.5-24.8-11.3-37.2-.5-1.7-.8-3.4-1.4-6.1Z"/>
        <path class="cls-1" d="M781.3,304.8c.2-23.7,19.4-42.7,43-42.3,21.5.3,41.9,16.7,42,42.5,0,25.3-20,42.7-42.6,42.6-23.7,0-42.6-19.1-42.4-42.9Z"/>
        <path class="cls-2" d="M361.7,108.4c19.9-.5,42.6,15.5,42.3,42.9-.2,24.8-19.5,42.2-42.3,42.2-27.2,0-42.8-22.2-42.7-42.6,0-24.5,20.4-43,42.8-42.5Z"/>
        <path class="cls-1" d="M281.4,505c21.2-.8,42.6,17,42.5,42.6-.1,23.5-18.7,42.1-42.1,42.3-26,.2-42.9-21.8-42.9-42.4,0-22.8,18.8-43.2,42.5-42.6Z"/>
        <path class="cls-2" d="M714.7,683.2c.5,22.9-19,42.8-42.7,42.5-23.4-.3-41.9-18.7-42.2-42.3-.3-22,16.7-42.8,42.4-42.8,26.6,0,43.2,21.9,42.5,42.6Z"/>
        <path class="cls-2" d="M724,862.4c5.4-1.1,22.5-1.3,32.7-.4.4.8,1.2,1.6,1.4,2.5,14.4,47.4,28.7,94.8,43.1,142.2.1.4-.2.9-.3,1.4-5.2,1.3-26.2,1.5-34.6.4-.2-.1-.4-.3-.6-.5-.2-.2-.4-.4-.4-.6-13.4-46.4-26.8-92.7-40.2-139.1-.5-1.7-.8-3.4-1.1-5.2,0-.2.1-.5.2-.7Z"/>
        <path class="cls-2" d="M546.1,861.8h33.1c4.4,11.9,7.6,24.2,11.3,36.2,3.9,12.4,7.5,24.8,11.3,37.2,3.7,12.1,7.5,24.3,11.2,36.4,3.6,12.1,7.5,24.1,10.9,36.3-5.6,1.5-24.5,1.8-35.4.8-.4-.5-1-1.1-1.2-1.8-13.6-47.1-27.2-94.2-40.8-141.3-.3-.9-.2-2-.3-3.8Z"/>
        <path class="cls-2" d="M268.1,861.8h33c3.2,6.3,34.4,107.1,44.3,142.8.3,1.2.4,2.4.6,3.5-5.9,1.2-27.1,1.4-35.7.3-4.3-11.7-7.1-24-10.8-36.1-3.7-12.2-7-24.4-10.5-36.6-3.5-12.2-7.1-24.4-10.5-36.6-3.4-12.2-7.4-24.2-10.4-37.3Z"/>
        <path class="cls-2" d="M673.7,1008.8c-.3-.7-.7-1.3-.6-1.7,11.3-46.2,22.7-92.3,34.1-138.4,0-.4.7-.7,1.3-1.2.4.5.9,1,1,1.6,5,18.1,9.9,36.3,15,54.4,1.1,3.8.6,7.6,0,11.3-1.2,6.8-2.5,13.5-3.7,20.2-.3,1.7-.3,3.5-.4,5.4,4.9,1.6,9.8.2,14.5,1.1,2.7,4.1,4.9,11,6.2,19.5-3.6,1.1-7.5.5-11.1.8-3.8.4-7.6.2-11.4.3-5.3,8.1-3.9,17.5-6.2,25.8-.6.4-1,.9-1.4.9-10.7.1-21.3.2-32,.3-1.7,0-3.5-.3-5.1-.4Z"/>
        <path class="cls-2" d="M263.2,982.2c-5.2,8.1-4.1,17.4-6.1,25.9-.9.4-1.6.9-2.3.9-11.2,0-22.4.1-33.5.1-1,0-1.9-.4-2.9-.6-.1-.9-.5-1.7-.3-2.4,11.3-46.1,22.7-92.3,34-138.2,2.2-.5,2.3.9,2.7,2,4.9,17.9,9.7,35.8,14.7,53.7.9,3.3.8,6.5.2,9.8-1.3,6.5-2.5,13-3.6,19.5-.4,2.4-.6,4.9-.9,7.7,5,1.3,9.9,0,15,1,3.1,5.7,4,12.2,6.3,18.9-1.6.4-2.9,1.1-4.3,1.2-6.3.3-12.6.4-18.9.6Z"/>
        <path class="cls-2" d="M530.5,866.6c.8,1.8,1.5,3.2,1.9,4.6,4.7,17.1,9.3,34.3,14,51.5,1,3.5,1.2,6.8.5,10.5-1.8,8.9-3.2,18-4.8,27.1,5.1,2.2,10.3,0,15.7,1.6,2.6,5.8,4.2,12,5.5,18-1.2,2.2-2.8,1.8-4.3,1.8-6.1.2-12.2.4-18.3.6-5.5,7.9-4.1,17.3-6.3,26-4.2,1.8-8.5.7-12.7.9-4.6.2-9.1.2-13.7,0-4.2-.1-8.5.7-13.1-.9.3-1.3.4-2.3.6-3.2,11.2-45.4,22.5-90.7,33.7-136.1.2-.7.6-1.2,1.2-2.4Z"/>
        <path class="cls-1" d="M819.7,207.5c-.1,18.7-15.4,33.9-34.1,33.8-18.5-.1-34.4-14.4-34.1-34.5.3-20.5,16.2-33.6,34.1-33.8,19-.1,34.3,15.4,34.1,34.5Z"/>
        <path class="cls-2" d="M732.7,635.8c-.7-14.3,10.5-33.6,33.9-33.9,19-.3,34.3,14.8,34.2,34.4-.1,19.5-15.5,34-33.9,33.9-22.6-.1-34.9-18.9-34.1-34.4Z"/>
        <path class="cls-2" d="M562.2,655.3c17.9-.4,34.5,14,34.3,34.3-.2,20.1-16,33.8-34,33.9-19.1,0-34.5-15-34.3-34.3.2-21,17.1-34.1,34-33.8Z"/>
        <path class="cls-1" d="M269.9,404.2c17.3-.4,34.1,14.1,33.8,34.7-.3,18.8-15.7,33.5-34.5,33.3-18.8-.2-33.9-15.4-33.8-34.1.2-21.3,17.7-34.7,34.5-34Z"/>
        <path class="cls-2" d="M467.6,156.1c-16.7.6-33.7-13.5-33.8-33.9,0-19.1,15.4-34.4,34.5-34.2,18.9.2,33.8,15.2,33.8,34,0,20-16.4,34.8-34.5,34Z"/>
        <path class="cls-2" d="M279,249.3c-16,1.1-34.2-11.9-34.3-34-.1-18.9,15.1-33.4,34-33.9,17-.4,34.4,13.6,34.3,34.2,0,19.8-16.7,34.6-33.9,33.7Z"/>
        <path class="cls-1" d="M366.6,640c.4,17.7-14.8,33.8-34,33.7-19.2-.2-34.2-15.4-34-34.6.2-17.1,12.8-33.6,34.1-33.7,22.1,0,34.8,18.6,33.8,34.6Z"/>
        <path class="cls-1" d="M820.8,449.4c-18.9.4-33.8-15.7-33.9-33.8,0-18.7,15.1-34.5,34.3-34.3,18.9.2,33.8,15.1,33.9,33.9.1,19.8-16.2,34.9-34.3,34.1Z"/>
        <path class="cls-2" d="M452.7,981.4c-.5-1.1-1.1-2.1-1.5-3.2-6.2-18.3-12.3-36.7-18.5-55-.9-2.8-1.3-5.4-.6-8.2,3.8-16.4,7.5-32.7,11.3-49.1.3-1.2.7-2.4,1-3.6,5.7-1.1,31.5-1.3,38.9-.2.1.7.5,1.5.3,2.1-9.8,39-19.6,77.9-29.4,116.9-.5,0-1.1.1-1.6.2Z"/>
        <path class="cls-2" d="M484.6,641.3c14.8,0,26.8,12.1,26.4,26.8-.5,15.8-12.4,26.3-26.9,26.3-14.7,0-26.5-12.1-26.3-26.9.1-14.9,11.9-26.3,26.9-26.2Z"/>
        <path class="cls-1" d="M287,385.2c-14,.5-26.4-12.1-26.1-26.9.2-13.6,11.8-26.3,27.1-26,14.3.2,26.4,12.3,26.1,27-.2,13.2-11.2,26.6-27.1,25.9Z"/>
        <path class="cls-1" d="M697,137.8c-.5-11.9,9.2-26.5,26.8-26.2,17.8.3,26.4,15,26,27.1-.5,14.9-12,26.5-26.9,26.2-15.5-.3-26.7-13.2-25.9-27.1Z"/>
        <path class="cls-1" d="M766.3,491c-.4-13.7,10.9-26.6,26.6-26.5,15.8.1,26.5,13,26.3,26.9-.2,14-11.2,26-26.3,26.1-16.5,0-27.1-13.7-26.6-26.5Z"/>
        <path class="cls-2" d="M230,320.7c-14.2.5-26.7-12.1-26.2-26.7.5-15,11.8-26.6,26.6-26.5,14.8.2,26.4,12,26.3,26.8,0,17.2-14.9,27.1-26.7,26.3Z"/>
        <path class="cls-2" d="M548.3,154.2c-14.7-.1-26.8-12.2-26.2-26.9.5-13.8,10.2-25.6,26.5-26.1,14.5-.5,26.7,12.1,26.6,26.7,0,14.8-12,26.4-26.8,26.3Z"/>
        <path class="cls-1" d="M403.7,725.9c-14.7.1-26.8-11.8-26.6-26.5.2-15.8,13-26.2,26-26.4,13.2-.2,26.7,9.5,27,26.1.3,15.7-12.2,26.7-26.3,26.8Z"/>
        <path class="cls-2" d="M856.3,568.5c.9,11.9-9.3,26.5-26.4,26.6-14.6,0-25.6-11.5-26.1-26.1-.6-15,12-26.9,26-26.9,17.2,0,27.3,14.5,26.5,26.4Z"/>
        <path class="cls-1" d="M469.9,747.9c-11.7-.2-20.8-9.3-20.8-20.9,0-11.5,9.3-20.8,20.8-20.9,10.3,0,21.1,7.4,21.2,21.4,0,11.6-9.6,20.6-21.2,20.5Z"/>
        <path class="cls-1" d="M660.9,122.8c-11.5,0-20.9-9.2-21-20.8-.1-11.9,9.4-21.1,21.4-21.1,9.8,0,20.7,7.8,20.6,21.1,0,10.9-7.8,20.4-21,20.8Z"/>
        <path class="cls-2" d="M860.3,482.4c11.8-.1,21.2,8.7,21.3,20.3.2,12.2-9.2,21.2-20.3,21.5-12.5.2-21.5-9-21.8-20.8-.2-11.6,9.1-20.9,20.7-21Z"/>
        <path class="cls-1" d="M752,571.6c-12,.1-20.7-8.4-21.2-20.2-.5-11.1,8.9-21.6,20.9-21.4,11.7.2,20.7,9,20.8,20.8.1,12.8-10.8,21.6-20.6,20.9Z"/>
        <path class="cls-2" d="M192.3,364.7c0-11.6,9.2-21.1,20.7-21,12.4.2,20.8,9.8,21,20.7.2,10.6-7.9,21.3-21.1,21.3-11.6,0-20.6-9.4-20.6-21.1Z"/>
        <path class="cls-2" d="M400.9,632.4c-.5-12.1,9.3-21.1,20.3-21.2,13.9-.1,21.5,11.2,21.4,21.1-.1,11-8.7,20.9-20.9,20.8-14.1-.1-21.3-11.4-20.8-20.7Z"/>
        <path class="cls-1" d="M340.7,294.8c-.1,11.6-9.6,21-20.9,20.8-11.5-.2-20.8-9.5-20.8-21.1,0-11.8,9.7-21.4,21.5-21.1,10.5.3,20.7,8.8,20.3,21.4Z"/>
        <path class="cls-2" d="M617.9,129.2c11.7.1,20.6,9.2,20.5,21,0,11.6-9.3,20.8-20.9,20.8-11.8,0-21-9.6-20.9-21.5,0-8.9,7.5-20.7,21.3-20.2Z"/>
        <path class="cls-1" d="M609,97.7c-7.9.6-13.7-6.7-13.7-13.3,0-7.5,5.9-13.6,13.3-13.8,7.9-.2,14.2,6,14.1,13.8-.2,8.8-7.7,13.9-13.7,13.3Z"/>
        <path class="cls-1" d="M726.3,585.3c-.2,7.4-6.4,13.5-13.8,13.4-7.7,0-13.9-6.6-13.6-14.4.3-7.4,6.8-13.3,14.2-13,7.4.3,13.4,6.6,13.2,14Z"/>
        <path class="cls-1" d="M354.1,241.3c7.6,0,13.6,5.8,13.7,13.4.1,7.8-6.1,14-14,13.8-7.5-.2-13.5-6.3-13.4-13.8.1-7.5,6.2-13.5,13.7-13.4Z"/>
        <path class="cls-2" d="M383.7,609.5c-6.1.5-13.6-5.6-13.2-13.7.4-7.7,5.8-13.4,13.5-13.5,7.8,0,14,6.4,13.7,14.2-.3,7.7-6.8,13.6-14,13Z"/>
        <path class="cls-1" d="M524,723.8c6.1-.7,13.6,4.7,13.6,13.3,0,7.9-6.2,14.1-14,13.8-7.4-.3-13.7-6.6-13.3-13.9.5-9.3,7.7-13.9,13.8-13.2Z"/>
        <path class="cls-2" d="M887.7,449.7c-.5,8.6-6,13.5-13.3,14-7.4.5-13.7-5.4-14.1-13-.4-8,5.6-14.4,13.4-14.4,8.3,0,13.3,6.1,13.9,13.3Z"/>
        <path class="cls-2" d="M661.6,163.8c8,.7,13.3,5.6,13.6,13.6.3,7.5-5.6,13.5-13.2,13.7-8.1.2-13.9-5.6-13.9-13.7,0-7,4.6-12.8,13.5-13.6Z"/>
        <path class="cls-2" d="M211.6,406.1c7.8.1,12.9,5.7,13.1,13.6.2,7.8-6.8,13.6-13.4,13.5-7.2-.1-13.7-5.8-13.5-14.2.2-7.3,6.9-13.7,13.9-12.9Z"/>
      </g>
    </g>
  </g>
</svg>