<?xml version="1.0" encoding="UTF-8"?>
<svg xmlns="http://www.w3.org/2000/svg" version="1.1" viewBox="0 0 1080 1080">
  <defs>
    <style>
      .cls-1 {
        fill: #fe701a;
      }

      .cls-2 {
        fill: #0a6ab6;
      }
    </style>
  </defs>
  <!-- Generator: Adobe Illustrator 28.7.1, SVG Export Plug-In . SVG Version: 1.2.0 Build 142)  -->
  <g>
    <g id="Layer_1">
      <g id="Layer_1-2" data-name="Layer_1">
        <g>
          <path class="cls-1" d="M873.9,393.4c.3-32.8,26.8-59.1,59.5-58.5,29.8.4,58,23.1,58.1,58.8,0,35-27.7,59.1-58.9,58.9-32.8,0-58.9-26.4-58.7-59.4h0v.2Z"/>
          <path class="cls-2" d="M293.3,121.6c27.5-.7,58.9,21.4,58.5,59.4-.3,34.3-27,58.4-58.5,58.4s-59.2-30.7-59.1-58.9c0-33.9,28.2-59.5,59.2-58.8h-.1Z"/>
          <path class="cls-1" d="M182.2,670.4c29.3-1.1,58.9,23.5,58.8,58.9-.1,32.5-25.9,58.3-58.3,58.5-36,.3-59.4-30.2-59.4-58.7s26-59.8,58.8-58.9h0v.2Z"/>
          <path class="cls-2" d="M781.7,917c.7,31.7-26.3,59.2-59.1,58.8-32.4-.4-58-25.9-58.4-58.5-.4-30.4,23.1-59.2,58.7-59.2s59.8,30.3,58.8,58.9Z"/>
          <path class="cls-1" d="M927,258.7c0,25.9-21.3,46.9-47.2,46.8-25.6-.1-47.6-19.9-47.2-47.7.4-28.4,22.4-46.5,47.2-46.8,26.3-.1,47.5,21.3,47.2,47.7h0Z"/>
          <path class="cls-2" d="M806.7,851.4c-1-19.8,14.5-46.5,46.9-46.9,26.3-.4,47.5,20.5,47.3,47.6,0,27-21.4,47-46.9,46.9-31.3,0-48.3-26.2-47.2-47.6h0Z"/>
          <path class="cls-2" d="M570.7,878.4c24.8-.6,47.7,19.4,47.5,47.5-.3,27.8-22.1,46.8-47,46.9-26.4,0-47.7-20.8-47.5-47.5.3-29.1,23.7-47.2,47-46.8h0Z"/>
          <path class="cls-1" d="M166.2,530.9c23.9-.6,47.2,19.5,46.8,48-.4,26-21.7,46.4-47.7,46.1-26-.3-46.9-21.3-46.8-47.2.3-29.5,24.5-48,47.7-47h0Z"/>
          <path class="cls-2" d="M439.8,187.6c-23.1.8-46.6-18.7-46.8-46.9,0-26.4,21.3-47.6,47.7-47.3,26.2.3,46.8,21,46.8,47s-22.7,48.2-47.7,47h0v.2Z"/>
          <path class="cls-2" d="M178.8,316.6c-22.1,1.5-47.3-16.5-47.5-47-.1-26.2,20.9-46.2,47-46.9,23.5-.6,47.6,18.8,47.5,47.3,0,27.4-23.1,47.9-46.9,46.6h-.1,0Z"/>
          <path class="cls-1" d="M300.1,857.2c.6,24.5-20.5,46.8-47,46.6-26.6-.3-47.3-21.3-47-47.9.3-23.7,17.7-46.5,47.2-46.6,30.6,0,48.2,25.7,46.8,47.9h.1-.1Z"/>
          <path class="cls-1" d="M928.6,593.5c-26.2.6-46.8-21.7-46.9-46.8,0-25.9,20.9-47.7,47.5-47.5,26.2.3,46.8,20.9,46.9,46.9,0,27.4-22.4,48.3-47.5,47.2h0v.2Z"/>
          <path class="cls-2" d="M463.3,859c20.5,0,37.1,16.7,36.5,37.1-.7,21.9-17.2,36.4-37.2,36.4s-36.7-16.7-36.4-37.2c.1-20.6,16.5-36.4,37.2-36.3h-.1Z"/>
          <path class="cls-1" d="M189.9,504.6c-19.4.7-36.5-16.7-36.1-37.2.3-18.8,16.3-36.4,37.5-36,19.8.3,36.5,17,36.1,37.4-.3,18.3-15.5,36.8-37.5,35.8h0Z"/>
          <path class="cls-1" d="M757.3,162.3c-.7-16.5,12.7-36.7,37.1-36.3,24.6.4,36.5,20.8,36,37.5-.7,20.6-16.6,36.7-37.2,36.3-21.4-.4-36.9-18.3-35.8-37.5h0Z"/>
          <path class="cls-1" d="M853.1,651c-.6-19,15.1-36.8,36.8-36.7,21.9,0,36.7,18,36.4,37.2-.3,19.4-15.5,36-36.4,36.1-22.8,0-37.5-19-36.8-36.7h0Z"/>
          <path class="cls-2" d="M111,415.4c-19.6.7-36.9-16.7-36.3-36.9.7-20.8,16.3-36.8,36.8-36.7,20.5.3,36.5,16.6,36.4,37.1,0,23.8-20.6,37.5-36.9,36.4h0Z"/>
          <path class="cls-2" d="M551.5,185c-20.3-.1-37.1-16.9-36.3-37.2.7-19.1,14.1-35.4,36.7-36.1,20.1-.7,36.9,16.7,36.8,36.9,0,20.5-16.6,36.5-37.1,36.4h-.1Z"/>
          <path class="cls-1" d="M351.4,976.1c-20.3,0-37.1-16.3-36.8-36.7.3-21.9,18-36.3,36-36.5,18.3-.3,36.9,13.1,37.4,36.1.4,21.7-16.9,36.9-36.4,37.1h-.2Z"/>
          <path class="cls-2" d="M977.7,758.3c1.2,16.5-12.9,36.7-36.5,36.8-20.2,0-35.4-15.9-36.1-36.1-.8-20.8,16.6-37.2,36-37.2s37.8,20.1,36.7,36.5h-.1Z"/>
          <path class="cls-1" d="M443,1006.5c-16.2-.3-28.8-12.9-28.8-28.9s12.9-28.8,28.8-28.9c14.3,0,29.2,10.2,29.3,29.6,0,16.1-13.3,28.5-29.3,28.4h0v-.2Z"/>
          <path class="cls-1" d="M707.3,141.5c-15.9,0-28.9-12.7-29.1-28.8,0-16.5,13-29.2,29.6-29.2s28.6,10.8,28.5,29.2c0,15.1-10.8,28.2-29.1,28.8h0Z"/>
          <path class="cls-2" d="M983.2,639.1c16.3,0,29.3,12,29.5,28.1.3,16.9-12.7,29.3-28.1,29.8-17.3.3-29.8-12.5-30.2-28.8-.3-16.1,12.6-28.9,28.6-29.1h.2Z"/>
          <path class="cls-1" d="M833.4,762.6c-16.6,0-28.6-11.6-29.3-28-.7-15.4,12.3-29.9,28.9-29.6,16.2.3,28.6,12.5,28.8,28.8,0,17.7-14.9,29.9-28.5,28.9h0Z"/>
          <path class="cls-2" d="M58.9,476.3c0-16.1,12.7-29.2,28.6-29.1,17.2.3,28.8,13.6,29.1,28.6.3,14.7-10.9,29.5-29.2,29.5s-28.5-13-28.5-29.2h0v.2Z"/>
          <path class="cls-2" d="M347.5,846.7c-.7-16.7,12.9-29.2,28.1-29.3,19.2,0,29.8,15.5,29.6,29.2-.1,15.2-12,28.9-28.9,28.8-19.5,0-29.5-15.8-28.8-28.6h0Z"/>
          <path class="cls-1" d="M264.2,379.5c-.1,16.1-13.3,29.1-28.9,28.8-15.9-.3-28.8-13.1-28.8-29.2s13.4-29.6,29.8-29.2c14.5.4,28.6,12.2,28.1,29.6h-.2Z"/>
          <path class="cls-2" d="M647.8,150.4c16.2.1,28.5,12.7,28.4,29.1,0,16.1-12.9,28.8-28.9,28.8s-29.1-13.3-28.9-29.8c0-12.3,10.4-28.6,29.5-28h0Z"/>
          <path class="cls-1" d="M635.5,106.8c-10.9.8-19-9.3-19-18.4s8.2-18.8,18.4-19.1c10.9-.3,19.6,8.3,19.5,19.1-.3,12.2-10.7,19.2-19,18.4h0Z"/>
          <path class="cls-1" d="M797.8,781.5c-.3,10.2-8.9,18.7-19.1,18.5-10.7,0-19.2-9.1-18.8-19.9.4-10.2,9.4-18.4,19.6-18,10.2.4,18.5,9.1,18.3,19.4h0Z"/>
          <path class="cls-1" d="M282.8,305.5c10.5,0,18.8,8,19,18.5.1,10.8-8.4,19.4-19.4,19.1-10.4-.3-18.7-8.7-18.5-19.1.1-10.4,8.6-18.7,19-18.5h-.1Z"/>
          <path class="cls-2" d="M323.7,815c-8.4.7-18.8-7.7-18.3-19,.6-10.7,8-18.5,18.7-18.7,10.8,0,19.4,8.9,19,19.6-.4,10.7-9.4,18.8-19.4,18h0Z"/>
          <path class="cls-1" d="M517.9,973.2c8.4-1,18.8,6.5,18.8,18.4s-8.6,19.5-19.4,19.1c-10.2-.4-19-9.1-18.4-19.2.7-12.9,10.7-19.2,19.1-18.3h0Z"/>
          <path class="cls-2" d="M1021.1,593.9c-.7,11.9-8.3,18.7-18.4,19.4-10.2.7-19-7.5-19.5-18-.6-11.1,7.7-19.9,18.5-19.9s18.4,8.4,19.2,18.4h.2Z"/>
          <path class="cls-2" d="M708.3,198.3c11.1,1,18.4,7.7,18.8,18.8.4,10.4-7.7,18.7-18.3,19-11.2.3-19.2-7.7-19.2-19s6.4-17.7,18.7-18.8h0Z"/>
          <path class="cls-2" d="M85.6,533.6c10.8,0,17.9,7.9,18.1,18.8.3,10.8-9.4,18.8-18.5,18.7-10,0-19-8-18.7-19.6.3-10.1,9.5-19,19.2-17.9h0Z"/>
        </g>
      </g>
    </g>
  </g>
</svg>